<?xml version="1.0" encoding="utf-8"?>
<!-- Generator: Adobe Illustrator 16.0.0, SVG Export Plug-In . SVG Version: 6.00 Build 0)  -->
<!DOCTYPE svg PUBLIC "-//W3C//DTD SVG 1.1//EN" "http://www.w3.org/Graphics/SVG/1.1/DTD/svg11.dtd">
<svg version="1.1" id="Слой_1" xmlns="http://www.w3.org/2000/svg" xmlns:xlink="http://www.w3.org/1999/xlink" x="0px" y="0px"
	 width="512px" height="512px" viewBox="0 0 512 512" enable-background="new 0 0 512 512" xml:space="preserve">
<g id="moon_3">
	<g>
		<path fill="#646C77" d="M511.992,256c0,141.386-114.605,255.992-255.992,255.992C114.63,511.992,0.008,397.386,0.008,256
			C0.008,114.629,114.63,0.008,256,0.008C397.387,0.008,511.992,114.629,511.992,256z"/>
	</g>
	<g>
		<path fill="#FECD57" d="M213.346,256c0-87.466,52.654-162.635,127.995-195.556C315.202,49.022,286.343,42.678,256,42.678
			C138.191,42.678,42.679,138.191,42.679,256c0,117.824,95.513,213.336,213.321,213.336c30.343,0,59.202-6.359,85.341-17.779
			C266,418.636,213.346,343.481,213.346,256z"/>
	</g>
	<g>
		<path fill="#F5BA45" d="M85.35,256c0-110.59,84.169-201.541,191.947-212.259c-7.016-0.703-14.109-1.063-21.297-1.063
			C138.191,42.678,42.679,138.191,42.679,256c0,117.824,95.513,213.336,213.321,213.336c7.188,0,14.281-0.375,21.297-1.063
			C169.519,457.54,85.35,366.605,85.35,256z"/>
	</g>
</g>
</svg>
